<svg width="65" height="64" viewBox="0 0 65 64" fill="none" xmlns="http://www.w3.org/2000/svg">
<circle cx="32.5" cy="32" r="32" fill="#127EB2"/>
<path d="M41.5876 37.6164V38.9054H27.6972C27.3309 38.9054 26.9646 39.0281 26.6898 39.243L23.4233 41.7903V21.9335H41.5876V27.7954L43.5109 25.6164V21.6573C43.5109 20.7366 42.7477 20 41.8623 20H23.1485C22.2327 20 21.5 20.7366 21.5 21.6573V42.312C21.5 42.9565 21.8358 43.509 22.4158 43.8159C22.6601 43.9386 22.9043 44 23.1485 44C23.4843 44 23.8507 43.8772 24.156 43.6624L27.6972 40.8389H41.8623C42.7782 40.8389 43.5109 40.0716 43.5109 39.1816V35.7749L42.2897 37.156C42.1066 37.3402 41.8623 37.5243 41.5876 37.6164Z" fill="white"/>
<path d="M27.1163 26.598H37.8623C38.4118 26.598 38.8392 26.1683 38.8392 25.6159C38.8392 25.0941 38.4118 24.6338 37.8623 24.6338H27.1163C26.5668 24.6338 26.1394 25.0941 26.1394 25.6159C26.1699 26.1683 26.5973 26.598 27.1163 26.598Z" fill="white"/>
<path d="M38.8392 30.2809C38.8392 29.7592 38.4118 29.2988 37.8623 29.2988H27.1163C26.5668 29.2988 26.1394 29.7592 26.1394 30.2809C26.1394 30.8334 26.5668 31.263 27.1163 31.263H37.8623C38.4118 31.263 38.8392 30.8334 38.8392 30.2809Z" fill="white"/>
<path d="M26.1704 34.9465C26.1704 35.499 26.5978 35.9286 27.1473 35.9286H36.4279L36.7637 33.9951H27.1168C26.5978 33.9951 26.1704 34.4248 26.1704 34.9465Z" fill="white"/>
<path d="M45.6584 25.5298L39.9331 31.9521L42.6612 34.4101L48.3865 27.9878L45.6584 25.5298Z" fill="white"/>
<path d="M50.3185 25.003L48.4257 23.2843C48.212 23.0695 47.8457 23.1002 47.6625 23.315L46.533 24.604L49.25 27.0592L50.3795 25.7702C50.5627 25.5554 50.5322 25.1871 50.3185 25.003Z" fill="white"/>
<path d="M38.5658 36.9414L40.8859 36.2662C40.9775 36.2355 41.0691 36.1741 41.1302 36.1127L41.8018 35.3761L39.0848 32.9209L38.4131 33.6575C38.3521 33.7495 38.291 33.8416 38.291 33.9337L37.8942 36.3275C37.8331 36.7265 38.1994 37.0334 38.5658 36.9414Z" fill="white"/>
</svg>
